<svg xmlns="http://www.w3.org/2000/svg" viewBox="0 0 369.46 164.66"><g id="Capa_2" data-name="Capa 2"><g id="Capa_1-2" data-name="Capa 1"><path d="M71.46,153.65c-1.93,1.1-3.5,2.08-5.14,2.93a68.86,68.86,0,0,1-22.48,6.74A103.81,103.81,0,0,1,24,164.57a34.76,34.76,0,0,1-12-2.63C4.15,158.62.58,152.37.11,144.19c-.88-15.09,3.66-28.81,11-41.76C17.26,91.59,25.06,82,33.61,73A264.56,264.56,0,0,1,97.06,23.34c14.48-8,29.4-15.15,45.33-19.89,8-2.38,16.14-3.88,24.52-3.34C180.22,1,190.32,7.5,193,23.48c1.44,8.5-.63,16.47-3.95,24.2a64.44,64.44,0,0,1-8.32,14.08A7.3,7.3,0,0,1,179.53,63c2.5-6.55,3.15-13.48,4.47-20.25,1.05-5.42,1.4-10.89-1-16.08-3.46-7.63-9.6-11.85-17.74-13.27-9.16-1.61-18,.26-26.74,2.74C112.87,23.49,89.63,35.71,68.2,51.52A222,222,0,0,0,41.46,74.14c-9.92,10.1-18.31,21.27-23.63,34.52-3.21,8-5.34,16.26-5.35,24.93a57.36,57.36,0,0,0,.93,10.95c1.37,7.14,6.13,11.16,13,12.78,5.54,1.3,11.15,1.2,16.78.81a169.36,169.36,0,0,0,27.32-4.56A4,4,0,0,1,71.46,153.65Z" style="fill:#487863"/><path d="M88.92,101.23c.44-.67.79-1.19,1.12-1.73,3.46-5.61,6.81-11.29,10.42-16.8a11,11,0,0,1,10-5c3.83.15,6.09,2.71,7.63,6,4.39,9.52,8.83,19,13.24,28.54.25.53.47,1.07.82,1.86h-3.78c-3.28,0-6.55-.06-9.82,0a1.82,1.82,0,0,1-2-1.34c-2.1-5-4.27-9.93-6.42-14.89-.27-.62-.57-1.22-1-2.13-.57.82-1,1.4-1.4,2-2.88,4.27-5.74,8.54-8.62,12.8A10.54,10.54,0,0,1,83,112.15c-4.89-4.89-9.73-9.83-14.6-14.74-.29-.29-.61-.56-1.13-1l-2,10.09c-.51,2.56-1,5.14-1.6,7.68a1.71,1.71,0,0,1-1.21,1c-4.29.07-8.58,0-12.87.06-1.81,0-1.31-1.23-1.14-2.13.56-2.94,1.23-5.86,1.84-8.79,1.33-6.33,2.63-12.66,4-19,1.11-5.16,7.23-8.5,12.11-6.45a14,14,0,0,1,4.55,3.18c5.66,5.93,11.19,12,16.77,18C88,100.43,88.43,100.76,88.92,101.23Z" style="fill:#293987"/><path d="M224.91,96.52H269a9.1,9.1,0,0,0,6-1.88c2.15-1.78,2.18-4.22,0-6a9.68,9.68,0,0,0-6.23-2.2H225a73.81,73.81,0,0,0,5.2-6.26c1.82-2.74,4.14-3.41,7.15-2.75a12.41,12.41,0,0,0,2.73.14c9.65,0,19.31-.06,29,0a36.83,36.83,0,0,1,12.75,2.24,14.78,14.78,0,0,1,7.29,5.8c3.45,5.25,2.74,10.26-2.2,14.16-1.33,1.06-2.93,1.77-4.32,2.76a4,4,0,0,0-1.64,1.9c-.1.43.76,1.29,1.37,1.68,4,2.53,8,5,12,7.45l2.33,1.46c-.78.08-1.17.16-1.56.16-5.68,0-11.37,0-17,0a5.7,5.7,0,0,1-2.7-.77c-4.45-2.68-8.84-5.47-13.29-8.16a4.76,4.76,0,0,0-2.37-.75c-6,.07-11.89.29-17.84.34-1.63,0-1.81.65-1.65,2.05.28,2.32.35,4.66.52,7.24-3-.15-5.82-.28-8.63-.44-1.45-.07-2.89-.24-4.33-.26-1,0-1.47-.37-1.54-1.38-.26-3.36-.57-6.72-.83-10.08C225.21,100.91,225.08,98.85,224.91,96.52Z" style="fill:#293987"/><path d="M334.65,80c8.42,0,16.84,0,25.26,0a10.07,10.07,0,0,1,3,.42,4.42,4.42,0,0,1,3.5,4.53c.2,7.87.61,15.73.9,23.6.11,2.91-1.85,5-5.13,5.51a17.78,17.78,0,0,1-2.73.15q-21.79,0-43.6,0a47.36,47.36,0,0,1-7.35-.16c-4.13-.65-6.18-3.35-6.18-7.47V86c0-3.66,1.61-5.47,5.31-5.86A41.86,41.86,0,0,1,312,80C319.53,80,327.09,80,334.65,80Zm18.41,6.84H316.75v21.2h36.31Z" style="fill:#293987"/><path d="M217.75,77.71c-2.53,3-4.87,5.76-7.29,8.48a2.33,2.33,0,0,1-1.69.53c-3.79-.32-7.56-.78-11.35-1.07-4.87-.38-9.74-.64-14.44,1.12a15.61,15.61,0,0,0-7.26,5.39,7.25,7.25,0,0,0,.61,10,14.37,14.37,0,0,0,9.84,4.57c7.33.33,14.66.31,22,.37a28.2,28.2,0,0,0,4.07-.61c-1.51,2.57-2.83,4.9-4.26,7.17a1.9,1.9,0,0,1-1.41.52c-9,0-18,.29-27-.22a25.06,25.06,0,0,1-18.6-9.62,15.49,15.49,0,0,1,3.79-23A31.14,31.14,0,0,1,177.85,77c8.82-1.21,17.65-.78,26.48-.13C208.7,77.15,213.07,77.4,217.75,77.71Z" style="fill:#293987"/><path d="M274,126c.23-2,.41-3.74.67-5.47,0-.27.42-.52.68-.73s.32,0,.48,0c11.91,0,23.81,0,35.72,0,2.05,0,4.13,3.15,3.51,5.42-1.28,4.74-2.69,9.45-4.06,14.17a37.82,37.82,0,0,0-1.08,3.69c-.24,1.34-.92,1.62-2.2,1.61-11.11,0-22.21-.14-33.31.05a4.2,4.2,0,0,1-4.12-5.66,71.19,71.19,0,0,1,2.48-7.11c1.08-2.54,3.53-2.78,5.85-2.81,6.44-.1,12.87-.06,19.31-.08h5.29c-.12-2.32-.71-2.94-2.63-3l-24.3-.11Zm28.05,8.46h-21c.18,1.29.35,2.44.48,3.6s.7,1.67,2,1.65c4.76-.08,9.52,0,14.29,0,5,0,5,0,4.38-5C302.26,134.61,302.2,134.58,302.08,134.45Z" style="fill:#487863"/><path d="M211.46,119.75h17.2c3.56,0,5.51,2.56,4.58,5.92-1.41,5.09-2.79,10.19-4.21,15.28a4.78,4.78,0,0,1-3.83,3.29,13.62,13.62,0,0,1-3.18.37q-15.44,0-30.87,0c-4.19,0-6.61-3.13-5.63-7.13.53-2.18,1.07-4.35,1.61-6.53s1.08-4.46,1.65-6.68a5.63,5.63,0,0,1,5.79-4.52Zm-12.57,20.91c5.64,0,10.94,0,16.23-.06.42,0,1.08-.79,1.19-1.31,1-4.64,1.91-9.3,2.89-13.95.26-1.25-.17-1.6-1.38-1.59q-6.84.07-13.67,0a1.57,1.57,0,0,0-1.8,1.52c-.35,1.73-.79,3.43-1.18,5.15Z" style="fill:#487863"/><path d="M133.75,119.75c-1.65,6.7-3.95,13-3.86,19.83.6,0,1.05.13,1.51.13q6.19,0,12.39,0a7.22,7.22,0,0,0,1.71-.3,2.45,2.45,0,0,0,2-3,21.52,21.52,0,0,1,0-3.85c.06-1.06-.35-1.4-1.39-1.39-3.38,0-6.76,0-10.13,0h-2a23,23,0,0,1,.08-3.74c.06-.37,1-.83,1.54-.84,3.69-.08,7.39,0,11.09,0,3,0,6,0,9,0a6.36,6.36,0,0,1,5.09,2.6,3.56,3.56,0,0,1,.56,2.52c-.3,2.22-.81,4.41-1.25,6.6-.57,2.8-3.79,5.58-7.14,6.11a26.72,26.72,0,0,1-4,.32q-13.52,0-27,0a5.73,5.73,0,0,1-5.87-7.38c1.25-5.35,2.59-10.68,3.82-16,.27-1.17.8-1.5,2-1.48C125.79,119.8,129.69,119.75,133.75,119.75Z" style="fill:#487863"/><path d="M355.82,128a27.45,27.45,0,0,0,0-3.14c0-.4-.58-1-.9-1.05q-7.39-.09-14.8,0a1.5,1.5,0,0,0-1.12.87c-1.66,5.13-3.26,10.28-4.86,15.42,0,.09,0,.21.1.45.42,0,.88.1,1.35.1,4.93,0,9.86,0,14.79,0,1.41,0,1.88-.64,1.81-1.76-.11-1.66.68-1.91,2.11-1.87,3.8.08,7.6,0,12,0-.65,1.5-.93,2.84-1.7,3.79a9.25,9.25,0,0,1-7.47,3.74c-10.08,0-20.17,0-30.25,0a10.34,10.34,0,0,1-3.72-.76c-2.3-.92-3.1-2.79-2.46-5.21,1.2-4.54,2.39-9.08,3.66-13.61a4.19,4.19,0,0,1,1.16-1.85,12.24,12.24,0,0,1,8.43-3.4c10.68,0,21.35,0,32,0a4.86,4.86,0,0,1,2.32.44,2.61,2.61,0,0,1,1.15,1.7,31.85,31.85,0,0,1,0,5c0,.39-.61,1.06-.94,1.07C364.3,128,360.18,128,355.82,128Z" style="fill:#487863"/><path d="M79.25,136.35C68.36,143.42,57,150.14,43.9,153.18c-5.31,1.23-10.66,1.69-16,.24-7.53-2-11.94-7.08-13-14.79a44.22,44.22,0,0,1,1.54-17.94A100.78,100.78,0,0,1,29.13,93.11c-.25.57-.49,1.14-.74,1.7-3.49,8.07-6.44,16.31-7.71,25.06a36.83,36.83,0,0,0,.37,13.72c1.68,7.21,7.58,11.51,14.12,12.49,8.24,1.24,16.24-.31,24-2.72C66,141.26,72.72,138.66,79.25,136.35Z" style="fill:#293987"/><path d="M159.05,78.12c2.76-5.32,5.68-10.54,8.22-16a53.19,53.19,0,0,0,5.08-18c1-10.64-4.68-18.14-15.36-20.16-7.1-1.34-14.19-.87-21.26.14-3.54.51-7.06,1.19-10.56,2s-6.94,1.72-10.49,2.48c.65-.32,1.3-.65,2-.95,9.26-4.36,18.75-8.13,28.84-10.1,6.46-1.27,13-1.76,19.44-.14a19.83,19.83,0,0,1,9.82,5.48c3.91,4.15,4.65,9.27,4.32,14.64-.48,7.64-3.35,14.53-6.89,21.19A118.81,118.81,0,0,1,159.05,78.12Z" style="fill:#293987"/><path d="M150.86,77.67c1.18,12.51,2.35,24.9,3.52,37.39a12.62,12.62,0,0,1-1.35.15c-3.64,0-7.29,0-10.94,0-1.15,0-1.59-.4-1.69-1.55q-1.56-16.95-3.18-33.88c-.06-.68,0-1.37,0-2.14Z" style="fill:#293987"/><path d="M254.38,119.76c-1.5,7.07-3.51,13.76-4.53,20.9H258c1.88,0,3.76,0,5.63,0,.88,0,1.22.28,1.28,1.18.25,3.77.28,3.72-3.48,3.57q-10.42-.43-20.87-.76c-3.88-.12-5.85-2.53-4.88-6.25,1.5-5.79,3.08-11.56,4.69-17.32.15-.51.81-1.25,1.24-1.26C245.79,119.72,250,119.76,254.38,119.76Z" style="fill:#487863"/><path d="M183.17,119.75c-.61,2.72-1.16,5.15-1.71,7.58-1.19,5.3-2.39,10.61-3.55,15.92-.21,1-.58,1.43-1.69,1.41-3.94-.07-7.89,0-12.12,0,.52-2.24,1-4.25,1.45-6.25,1.38-5.7,2.8-11.4,4.13-17.11.26-1.13.68-1.58,1.91-1.55C175.33,119.81,179.07,119.75,183.17,119.75Z" style="fill:#487863"/></g></g></svg>